<?xml version="1.0" encoding="UTF-8" standalone="no"?>
<!DOCTYPE svg PUBLIC "-//W3C//DTD SVG 1.1//EN" "http://www.w3.org/Graphics/SVG/1.1/DTD/svg11.dtd">
<svg version="1.1" xmlns="http://www.w3.org/2000/svg" xmlns:xlink="http://www.w3.org/1999/xlink" preserveAspectRatio="xMidYMid meet" viewBox="0 0 640 105" width="640" height="105"><defs><path d="M385 60C389.14 60 392.5 56.64 392.5 52.5C392.5 51 392.5 54 392.5 52.5C392.5 48.36 389.14 45 385 45C306.5 45 78.5 45 0 45C-4.14 45 -7.5 48.36 -7.5 52.5C-7.5 54 -7.5 51 -7.5 52.5C-7.5 56.64 -4.14 60 0 60C78.5 60 306.5 60 385 60Z" id="a43qod7nAm"></path><linearGradient id="gradientc2eL1eH23s" gradientUnits="userSpaceOnUse" x1="192.5" y1="60" x2="-39.97" y2="60"><stop style="stop-color: #efffcd;stop-opacity: 0.59" offset="0%"></stop><stop style="stop-color: #555152;stop-opacity: 1" offset="100%"></stop></linearGradient><path d="M0 45C-4.14 45 -7.5 41.64 -7.5 37.5C-7.5 36 -7.5 39 -7.5 37.5C-7.5 33.36 -4.14 30 0 30C93.54 30 366.64 30 460.18 30C464.32 30 467.68 33.36 467.68 37.5C467.68 39 467.68 36 467.68 37.5C467.68 41.64 464.32 45 460.18 45C366.64 45 93.54 45 0 45Z" id="b4x2jXWFxd"></path><linearGradient id="gradienta1goKE5SYu" gradientUnits="userSpaceOnUse" x1="492.5" y1="42.5" x2="125.4" y2="41.34"><stop style="stop-color: #efffcd;stop-opacity: 1" offset="0%"></stop><stop style="stop-color: #2e2633;stop-opacity: 1" offset="100%"></stop></linearGradient><path d="M589.38 60C592.79 60 595.55 62.76 595.55 66.17C595.55 67.93 595.55 67.07 595.55 68.83C595.55 72.24 592.79 75 589.38 75C471.5 75 124.04 75 6.17 75C2.76 75 0 72.24 0 68.83C0 67.07 0 67.93 0 66.17C0 62.76 2.76 60 6.17 60C124.04 60 471.5 60 589.38 60Z" id="b1cY1lPU3G"></path><path d="M-2.81 75C-5.4 75 -7.5 77.1 -7.5 79.69C-7.5 81.75 -7.5 83.25 -7.5 85.31C-7.5 87.9 -5.4 90 -2.81 90C46.25 90 188.75 90 237.81 90C240.4 90 242.5 87.9 242.5 85.31C242.5 83.25 242.5 81.75 242.5 79.69C242.5 77.1 240.4 75 237.81 75C188.75 75 46.25 75 -2.81 75Z" id="aZbqQkLEm"></path><linearGradient id="gradienta4SnIG43F4" gradientUnits="userSpaceOnUse" x1="-17.5" y1="91" x2="117.5" y2="90"><stop style="stop-color: #efffcd;stop-opacity: 0.78" offset="0%"></stop><stop style="stop-color: #555152;stop-opacity: 1" offset="100%"></stop></linearGradient><path d="M523.31 105C527.01 105 530 102.01 530 98.31C530 96.65 530 98.35 530 96.69C530 92.99 527.01 90 523.31 90C424.65 90 135.35 90 36.69 90C32.99 90 30 92.99 30 96.69C30 98.35 30 96.65 30 98.31C30 102.01 32.99 105 36.69 105C135.35 105 424.65 105 523.31 105Z" id="a17kn65fKh"></path><linearGradient id="gradiente2dqRPdJI4" gradientUnits="userSpaceOnUse" x1="41.74" y1="100.97" x2="405" y2="100.97"><stop style="stop-color: #ffffff;stop-opacity: 1" offset="0%"></stop><stop style="stop-color: #f3ffda;stop-opacity: 1" offset="0%"></stop><stop style="stop-color: #555152;stop-opacity: 1" offset="100%"></stop></linearGradient><path d="M308.05 60C312.19 60 315.55 63.36 315.55 67.5C315.55 69 315.55 66 315.55 67.5C315.55 71.65 312.19 75 308.05 75C244.94 75 63.11 75 0 75C-4.14 75 -7.5 71.65 -7.5 67.5C-7.5 66 -7.5 69 -7.5 67.5C-7.5 63.36 -4.14 60 0 60C63.11 60 244.94 60 308.05 60Z" id="a4wvwxvwd"></path><linearGradient id="gradientb72u9bWw" gradientUnits="userSpaceOnUse" x1="366.11" y1="74.77" x2="154.03" y2="75"><stop style="stop-color: #ffffff;stop-opacity: 1" offset="0%"></stop><stop style="stop-color: #555152;stop-opacity: 1" offset="100%"></stop></linearGradient><path d="M325.73 15C329.61 15 332.75 18.14 332.75 22.02C332.75 23.61 332.75 21.39 332.75 22.98C332.75 26.86 329.61 30 325.73 30C238.04 30 -18.04 30 -105.73 30C-109.61 30 -112.75 26.86 -112.75 22.98C-112.75 21.39 -112.75 23.61 -112.75 22.02C-112.75 18.14 -109.61 15 -105.73 15C-18.04 15 238.04 15 325.73 15Z" id="e1B14dcDgY"></path><linearGradient id="gradienta5Vn9GDk8r" gradientUnits="userSpaceOnUse" x1="128.91" y1="30" x2="543.01" y2="30"><stop style="stop-color: #efffcd;stop-opacity: 0.59" offset="0%"></stop><stop style="stop-color: #6a715b;stop-opacity: 0.82" offset="33.340462704872%"></stop><stop style="stop-color: #010000;stop-opacity: 1" offset="100%"></stop></linearGradient><path d="M214.02 0C218.17 0 221.52 3.36 221.52 7.5C221.53 9 221.53 6 221.52 7.5C221.52 11.64 218.17 15 214.02 15C150.92 15 -30.92 15 -94.03 15C-98.17 15 -101.53 11.64 -101.53 7.5C-101.53 6 -101.53 9 -101.53 7.5C-101.53 3.36 -98.17 0 -94.03 0C-30.92 0 150.92 0 214.02 0Z" id="fKMNeL9ca"></path><linearGradient id="gradientc2PKkcMeMg" gradientUnits="userSpaceOnUse" x1="272.08" y1="14.76" x2="60" y2="15"><stop style="stop-color: #ffffff;stop-opacity: 1" offset="0%"></stop><stop style="stop-color: #555152;stop-opacity: 1" offset="100%"></stop></linearGradient><path d="M-57.46 105C-61.53 105 -64.82 101.71 -64.82 97.65C-64.82 96.12 -64.82 98.89 -64.82 97.36C-64.82 93.3 -61.53 90 -57.46 90C31.07 90 289.29 90 377.82 90C381.89 90 385.18 93.3 385.18 97.36C385.18 98.89 385.18 96.12 385.18 97.65C385.18 101.71 381.89 105 377.82 105C289.29 105 31.07 105 -57.46 105Z" id="bhZd5iVDa"></path><linearGradient id="gradiente3AGqjAiFf" gradientUnits="userSpaceOnUse" x1="408.68" y1="102.5" x2="61.04" y2="101.34"><stop style="stop-color: #efffcd;stop-opacity: 1" offset="0%"></stop><stop style="stop-color: #2e2633;stop-opacity: 1" offset="100%"></stop></linearGradient></defs><g><g><g><use xlink:href="#a43qod7nAm" opacity="1" fill="url(#gradientc2eL1eH23s)"></use></g><g><use xlink:href="#b4x2jXWFxd" opacity="1" fill="url(#gradienta1goKE5SYu)"></use></g><g><use xlink:href="#b1cY1lPU3G" opacity="1" fill="#efffcd" fill-opacity="1"></use></g><g><use xlink:href="#aZbqQkLEm" opacity="1" fill="url(#gradienta4SnIG43F4)"></use></g><g><use xlink:href="#a17kn65fKh" opacity="1" fill="url(#gradiente2dqRPdJI4)"></use></g><g><use xlink:href="#a4wvwxvwd" opacity="1" fill="url(#gradientb72u9bWw)"></use></g><g><use xlink:href="#e1B14dcDgY" opacity="1" fill="url(#gradienta5Vn9GDk8r)"></use></g><g><use xlink:href="#fKMNeL9ca" opacity="1" fill="url(#gradientc2PKkcMeMg)"></use></g><g><use xlink:href="#bhZd5iVDa" opacity="1" fill="url(#gradiente3AGqjAiFf)"></use></g></g></g></svg>